<svg width="33" height="32" viewBox="0 0 33 32" fill="none" xmlns="http://www.w3.org/2000/svg">
<g clip-path="url(#clip0_218_31)">
<path fill-rule="evenodd" clip-rule="evenodd" d="M32.1353 16C32.1353 24.8366 24.9718 32 16.1353 32C7.2987 32 0.135254 24.8366 0.135254 16C0.135254 7.16344 7.2987 0 16.1353 0C24.9718 0 32.1353 7.16344 32.1353 16ZM16.7086 11.8119C15.1524 12.4592 12.0421 13.7989 7.37778 15.8311C6.62036 16.1323 6.2236 16.427 6.18748 16.7151C6.12644 17.202 6.7362 17.3937 7.56655 17.6548C7.67949 17.6903 7.79653 17.7271 7.9165 17.7661C8.73344 18.0317 9.83236 18.3424 10.4036 18.3547C10.9218 18.3659 11.5002 18.1523 12.1388 17.7138C16.4968 14.772 18.7464 13.2851 18.8877 13.253C18.9873 13.2304 19.1254 13.202 19.2189 13.2851C19.3125 13.3683 19.3033 13.5258 19.2934 13.568C19.233 13.8255 16.8394 16.0508 15.6007 17.2024C15.2146 17.5614 14.9407 17.816 14.8847 17.8742C14.7593 18.0045 14.6314 18.1277 14.5086 18.2461C13.7496 18.9778 13.1805 19.5264 14.5401 20.4224C15.1934 20.8529 15.7163 21.209 16.2379 21.5642C16.8075 21.9521 17.3756 22.339 18.1107 22.8209C18.298 22.9437 18.4769 23.0712 18.6511 23.1954C19.314 23.668 19.9096 24.0926 20.6454 24.0248C21.0729 23.9855 21.5145 23.5835 21.7388 22.3845C22.2689 19.5509 23.3108 13.4113 23.5515 10.8813C23.5726 10.6596 23.5461 10.376 23.5248 10.2514C23.5035 10.1269 23.4589 9.94948 23.2971 9.81813C23.1054 9.66258 22.8094 9.62978 22.6771 9.63211C22.0753 9.64271 21.152 9.96376 16.7086 11.8119Z" fill="white"/>
</g>
<defs>
<clipPath id="clip0_218_31">
<rect width="32" height="32" fill="white" transform="translate(0.135254)"/>
</clipPath>
</defs>
</svg>
