<svg width="33" height="32" viewBox="0 0 33 32" fill="none" xmlns="http://www.w3.org/2000/svg">
<g clip-path="url(#clip0_218_33)">
<path fill-rule="evenodd" clip-rule="evenodd" d="M16.1485 0C7.29359 0 0.135254 7.2111 0.135254 16.1322C0.135254 23.2633 4.72184 29.2997 11.0847 31.4362C11.8802 31.5968 12.1716 31.089 12.1716 30.6619C12.1716 30.2879 12.1453 29.006 12.1453 27.6703C7.69085 28.632 6.76324 25.7472 6.76324 25.7472C6.04738 23.8776 4.98669 23.3971 4.98669 23.3971C3.52873 22.4088 5.09289 22.4088 5.09289 22.4088C6.71014 22.5157 7.55876 24.0648 7.55876 24.0648C8.99016 26.5218 11.2967 25.8276 12.2247 25.4001C12.3571 24.3585 12.7816 23.6373 13.2323 23.2368C9.67948 22.8628 5.9415 21.474 5.9415 15.2774C5.9415 13.5146 6.57739 12.0724 7.58498 10.9507C7.42601 10.5502 6.86911 8.89391 7.74428 6.67715C7.74428 6.67715 9.09636 6.24973 12.145 8.33309C13.4503 7.97996 14.7963 7.80032 16.1485 7.79881C17.5006 7.79881 18.8789 7.98597 20.1516 8.33309C23.2006 6.24973 24.5527 6.67715 24.5527 6.67715C25.4279 8.89391 24.8706 10.5502 24.7117 10.9507C25.7458 12.0724 26.3555 13.5146 26.3555 15.2774C26.3555 21.474 22.6175 22.8359 19.0382 23.2368C19.6216 23.7442 20.1251 24.7056 20.1251 26.2281C20.1251 28.3914 20.0989 30.1277 20.0989 30.6616C20.0989 31.089 20.3906 31.5968 21.1858 31.4365C27.5486 29.2994 32.1352 23.2633 32.1352 16.1322C32.1614 7.2111 24.9769 0 16.1485 0Z" fill="white"/>
</g>
<defs>
<clipPath id="clip0_218_33">
<rect width="32" height="32" fill="white" transform="translate(0.135254)"/>
</clipPath>
</defs>
</svg>
