<svg width="33" height="32" viewBox="0 0 33 32" fill="none" xmlns="http://www.w3.org/2000/svg">
<g clip-path="url(#clip0_219_520)">
<path fill-rule="evenodd" clip-rule="evenodd" d="M32.1348 16C32.1348 24.8366 24.9713 32 16.1348 32C7.29821 32 0.134766 24.8366 0.134766 16C0.134766 7.16344 7.29821 0 16.1348 0C24.9713 0 32.1348 7.16344 32.1348 16ZM16.7081 11.8119C15.1519 12.4592 12.0416 13.7989 7.37729 15.8311C6.61988 16.1323 6.22311 16.427 6.18699 16.7151C6.12595 17.202 6.73571 17.3937 7.56606 17.6548C7.67901 17.6903 7.79604 17.7271 7.91602 17.7661C8.73295 18.0317 9.83187 18.3424 10.4032 18.3547C10.9214 18.3659 11.4997 18.1523 12.1383 17.7138C16.4963 14.772 18.7459 13.2851 18.8872 13.253C18.9868 13.2304 19.1249 13.202 19.2185 13.2851C19.312 13.3683 19.3028 13.5258 19.2929 13.568C19.2325 13.8255 16.8389 16.0508 15.6003 17.2024C15.2141 17.5614 14.9402 17.816 14.8842 17.8742C14.7588 18.0045 14.6309 18.1277 14.5081 18.2461C13.7491 18.9778 13.18 19.5264 14.5396 20.4224C15.193 20.8529 15.7158 21.209 16.2374 21.5642C16.807 21.9521 17.3752 22.339 18.1103 22.8209C18.2975 22.9437 18.4764 23.0712 18.6506 23.1954C19.3135 23.668 19.9091 24.0926 20.6449 24.0248C21.0724 23.9855 21.514 23.5835 21.7383 22.3845C22.2684 19.5509 23.3103 13.4113 23.5511 10.8813C23.5722 10.6596 23.5456 10.376 23.5243 10.2514C23.503 10.1269 23.4585 9.94948 23.2966 9.81813C23.1049 9.66258 22.8089 9.62978 22.6766 9.63211C22.0748 9.64271 21.1515 9.96376 16.7081 11.8119Z" fill="white"/>
</g>
<defs>
<clipPath id="clip0_219_520">
<rect width="32" height="32" fill="white" transform="translate(0.134766)"/>
</clipPath>
</defs>
</svg>
