<svg width="33" height="32" viewBox="0 0 33 32" fill="none" xmlns="http://www.w3.org/2000/svg">
<g clip-path="url(#clip0_218_102)">
<path fill-rule="evenodd" clip-rule="evenodd" d="M16.1484 0C7.29346 0 0.135132 7.2111 0.135132 16.1322C0.135132 23.2633 4.72172 29.2997 11.0845 31.4362C11.8801 31.5968 12.1714 31.089 12.1714 30.6619C12.1714 30.2879 12.1452 29.006 12.1452 27.6703C7.69073 28.632 6.76312 25.7472 6.76312 25.7472C6.04725 23.8776 4.98657 23.3971 4.98657 23.3971C3.52861 22.4088 5.09277 22.4088 5.09277 22.4088C6.71002 22.5157 7.55864 24.0648 7.55864 24.0648C8.99004 26.5218 11.2966 25.8276 12.2245 25.4001C12.357 24.3585 12.7814 23.6373 13.2321 23.2368C9.67936 22.8628 5.94138 21.474 5.94138 15.2774C5.94138 13.5146 6.57727 12.0724 7.58486 10.9507C7.42589 10.5502 6.86899 8.89391 7.74416 6.67715C7.74416 6.67715 9.09624 6.24973 12.1449 8.33309C13.4501 7.97996 14.7962 7.80032 16.1484 7.79881C17.5005 7.79881 18.8788 7.98597 20.1515 8.33309C23.2005 6.24973 24.5526 6.67715 24.5526 6.67715C25.4278 8.89391 24.8705 10.5502 24.7116 10.9507C25.7457 12.0724 26.3554 13.5146 26.3554 15.2774C26.3554 21.474 22.6174 22.8359 19.0381 23.2368C19.6215 23.7442 20.125 24.7056 20.125 26.2281C20.125 28.3914 20.0987 30.1277 20.0987 30.6616C20.0987 31.089 20.3905 31.5968 21.1857 31.4365C27.5485 29.2994 32.1351 23.2633 32.1351 16.1322C32.1613 7.2111 24.9767 0 16.1484 0Z" fill="white"/>
</g>
<defs>
<clipPath id="clip0_218_102">
<rect width="32" height="32" fill="white" transform="translate(0.135132)"/>
</clipPath>
</defs>
</svg>
