<svg width="33" height="32" viewBox="0 0 33 32" fill="none" xmlns="http://www.w3.org/2000/svg">
<g clip-path="url(#clip0_218_100)">
<path fill-rule="evenodd" clip-rule="evenodd" d="M32.1351 16C32.1351 24.8366 24.9717 32 16.1351 32C7.29858 32 0.135132 24.8366 0.135132 16C0.135132 7.16344 7.29858 0 16.1351 0C24.9717 0 32.1351 7.16344 32.1351 16ZM16.7085 11.8119C15.1523 12.4592 12.042 13.7989 7.37766 15.8311C6.62024 16.1323 6.22348 16.427 6.18736 16.7151C6.12631 17.202 6.73608 17.3937 7.56642 17.6548C7.67937 17.6903 7.7964 17.7271 7.91638 17.7661C8.73331 18.0317 9.83223 18.3424 10.4035 18.3547C10.9217 18.3659 11.5001 18.1523 12.1387 17.7138C16.4967 14.772 18.7463 13.2851 18.8875 13.253C18.9872 13.2304 19.1253 13.202 19.2188 13.2851C19.3124 13.3683 19.3032 13.5258 19.2933 13.568C19.2329 13.8255 16.8393 16.0508 15.6006 17.2024C15.2145 17.5614 14.9406 17.816 14.8846 17.8742C14.7591 18.0045 14.6313 18.1277 14.5084 18.2461C13.7495 18.9778 13.1803 19.5264 14.54 20.4224C15.1933 20.8529 15.7162 21.209 16.2377 21.5642C16.8074 21.9521 17.3755 22.339 18.1106 22.8209C18.2979 22.9437 18.4768 23.0712 18.651 23.1954C19.3139 23.668 19.9095 24.0926 20.6452 24.0248C21.0728 23.9855 21.5144 23.5835 21.7387 22.3845C22.2688 19.5509 23.3106 13.4113 23.5514 10.8813C23.5725 10.6596 23.546 10.376 23.5247 10.2514C23.5034 10.1269 23.4588 9.94948 23.297 9.81813C23.1053 9.66258 22.8093 9.62978 22.677 9.63211C22.0752 9.64271 21.1519 9.96376 16.7085 11.8119Z" fill="white"/>
</g>
<defs>
<clipPath id="clip0_218_100">
<rect width="32" height="32" fill="white" transform="translate(0.135132)"/>
</clipPath>
</defs>
</svg>
