<svg width="33" height="32" viewBox="0 0 33 32" fill="none" xmlns="http://www.w3.org/2000/svg">
<g clip-path="url(#clip0_219_522)">
<path fill-rule="evenodd" clip-rule="evenodd" d="M16.148 0C7.2931 0 0.134766 7.2111 0.134766 16.1322C0.134766 23.2633 4.72135 29.2997 11.0842 31.4362C11.8797 31.5968 12.1711 31.089 12.1711 30.6619C12.1711 30.2879 12.1449 29.006 12.1449 27.6703C7.69036 28.632 6.76275 25.7472 6.76275 25.7472C6.04689 23.8776 4.9862 23.3971 4.9862 23.3971C3.52825 22.4088 5.0924 22.4088 5.0924 22.4088C6.70965 22.5157 7.55827 24.0648 7.55827 24.0648C8.98967 26.5218 11.2962 25.8276 12.2242 25.4001C12.3566 24.3585 12.7811 23.6373 13.2318 23.2368C9.67899 22.8628 5.94102 21.474 5.94102 15.2774C5.94102 13.5146 6.5769 12.0724 7.58449 10.9507C7.42552 10.5502 6.86863 8.89391 7.74379 6.67715C7.74379 6.67715 9.09587 6.24973 12.1445 8.33309C13.4498 7.97996 14.7958 7.80032 16.148 7.79881C17.5001 7.79881 18.8784 7.98597 20.1512 8.33309C23.2001 6.24973 24.5522 6.67715 24.5522 6.67715C25.4274 8.89391 24.8702 10.5502 24.7112 10.9507C25.7453 12.0724 26.355 13.5146 26.355 15.2774C26.355 21.474 22.617 22.8359 19.0377 23.2368C19.6211 23.7442 20.1246 24.7056 20.1246 26.2281C20.1246 28.3914 20.0984 30.1277 20.0984 30.6616C20.0984 31.089 20.3901 31.5968 21.1853 31.4365C27.5481 29.2994 32.1347 23.2633 32.1347 16.1322C32.1609 7.2111 24.9764 0 16.148 0Z" fill="white"/>
</g>
<defs>
<clipPath id="clip0_219_522">
<rect width="32" height="32" fill="white" transform="translate(0.134766)"/>
</clipPath>
</defs>
</svg>
