<svg width="33" height="32" viewBox="0 0 33 32" fill="none" xmlns="http://www.w3.org/2000/svg">
<g clip-path="url(#clip0_219_518)">
<path d="M27.2241 5.54081C25.1845 4.60496 22.9974 3.91548 20.7106 3.52058C20.669 3.51296 20.6274 3.532 20.6059 3.5701C20.3246 4.07038 20.0131 4.72305 19.7949 5.23604C17.3353 4.86781 14.8883 4.86781 12.4792 5.23604C12.261 4.71164 11.9381 4.07038 11.6555 3.5701C11.6341 3.53327 11.5925 3.51423 11.5508 3.52058C9.26531 3.91421 7.07818 4.6037 5.03735 5.54081C5.01968 5.54842 5.00453 5.56113 4.99448 5.57763C0.845955 11.7754 -0.290501 17.8209 0.267006 23.7914C0.269528 23.8206 0.285925 23.8486 0.30863 23.8663C3.04571 25.8764 5.69704 27.0967 8.29914 27.9055C8.34078 27.9182 8.38491 27.903 8.41141 27.8687C9.02693 27.0281 9.57562 26.1418 10.0461 25.2098C10.0738 25.1552 10.0473 25.0904 9.99058 25.0688C9.12028 24.7387 8.29157 24.3362 7.49441 23.8791C7.43135 23.8422 7.4263 23.7521 7.48431 23.7089C7.65206 23.5832 7.81986 23.4524 7.98004 23.3203C8.00902 23.2962 8.0494 23.2911 8.08348 23.3064C13.3205 25.6974 18.9902 25.6974 24.1654 23.3064C24.1994 23.2899 24.2398 23.2949 24.2701 23.3191C24.4303 23.4511 24.598 23.5832 24.7671 23.7089C24.8251 23.7521 24.8213 23.8422 24.7582 23.8791C23.9611 24.345 23.1324 24.7387 22.2608 25.0676C22.204 25.0892 22.1788 25.1552 22.2066 25.2098C22.6871 26.1405 23.2358 27.0268 23.84 27.8674C23.8652 27.903 23.9106 27.9182 23.9522 27.9055C26.5669 27.0967 29.2183 25.8764 31.9553 23.8663C31.9793 23.8486 31.9945 23.8219 31.997 23.7927C32.6642 16.8901 30.8794 10.8942 27.2657 5.57889C27.2569 5.56113 27.2418 5.54842 27.2241 5.54081ZM10.8281 20.156C9.25143 20.156 7.95228 18.7085 7.95228 16.9308C7.95228 15.1531 9.22624 13.7055 10.8281 13.7055C12.4426 13.7055 13.7292 15.1658 13.7039 16.9308C13.7039 18.7085 12.43 20.156 10.8281 20.156ZM21.4611 20.156C19.8844 20.156 18.5853 18.7085 18.5853 16.9308C18.5853 15.1531 19.8592 13.7055 21.4611 13.7055C23.0756 13.7055 24.3621 15.1658 24.337 16.9308C24.337 18.7085 23.0756 20.156 21.4611 20.156Z" fill="white"/>
</g>
<defs>
<clipPath id="clip0_219_518">
<rect width="32" height="32" fill="white" transform="translate(0.134766)"/>
</clipPath>
</defs>
</svg>
