<svg width="33" height="32" viewBox="0 0 33 32" fill="none" xmlns="http://www.w3.org/2000/svg">
<g clip-path="url(#clip0_218_29)">
<path d="M27.2246 5.54081C25.185 4.60496 22.9979 3.91548 20.7111 3.52058C20.6695 3.51296 20.6279 3.532 20.6064 3.5701C20.3251 4.07038 20.0136 4.72305 19.7954 5.23604C17.3358 4.86781 14.8888 4.86781 12.4797 5.23604C12.2615 4.71164 11.9386 4.07038 11.656 3.5701C11.6346 3.53327 11.593 3.51423 11.5513 3.52058C9.2658 3.91421 7.07867 4.6037 5.03783 5.54081C5.02017 5.54842 5.00502 5.56113 4.99497 5.57763C0.846443 11.7754 -0.290013 17.8209 0.267494 23.7914C0.270017 23.8206 0.286414 23.8486 0.309118 23.8664C3.0462 25.8764 5.69753 27.0967 8.29963 27.9055C8.34127 27.9182 8.3854 27.903 8.4119 27.8687C9.02742 27.0281 9.57611 26.1418 10.0466 25.2098C10.0743 25.1552 10.0478 25.0904 9.99107 25.0688C9.12076 24.7387 8.29205 24.3362 7.49489 23.8791C7.43184 23.8422 7.42679 23.7521 7.4848 23.7089C7.65255 23.5832 7.82035 23.4524 7.98053 23.3203C8.00951 23.2962 8.04989 23.2911 8.08396 23.3064C13.321 25.6974 18.9906 25.6974 24.1659 23.3064C24.1999 23.2899 24.2403 23.2949 24.2706 23.3191C24.4308 23.4511 24.5985 23.5832 24.7675 23.7089C24.8256 23.7521 24.8218 23.8422 24.7587 23.8791C23.9616 24.345 23.1328 24.7387 22.2613 25.0676C22.2045 25.0892 22.1793 25.1552 22.2071 25.2098C22.6876 26.1405 23.2363 27.0268 23.8404 27.8674C23.8657 27.903 23.9111 27.9182 23.9527 27.9055C26.5674 27.0967 29.2187 25.8764 31.9558 23.8664C31.9798 23.8486 31.9949 23.8219 31.9975 23.7927C32.6647 16.8901 30.8799 10.8942 27.2662 5.57889C27.2574 5.56113 27.2423 5.54842 27.2246 5.54081ZM10.8286 20.156C9.25192 20.156 7.95276 18.7085 7.95276 16.9308C7.95276 15.1531 9.22672 13.7055 10.8286 13.7055C12.4431 13.7055 13.7297 15.1658 13.7044 16.9308C13.7044 18.7085 12.4305 20.156 10.8286 20.156ZM21.4616 20.156C19.8849 20.156 18.5858 18.7085 18.5858 16.9308C18.5858 15.1531 19.8597 13.7055 21.4616 13.7055C23.0761 13.7055 24.3626 15.1658 24.3374 16.9308C24.3374 18.7085 23.0761 20.156 21.4616 20.156Z" fill="white"/>
</g>
<defs>
<clipPath id="clip0_218_29">
<rect width="32" height="32" fill="white" transform="translate(0.135254)"/>
</clipPath>
</defs>
</svg>
