<svg width="33" height="32" viewBox="0 0 33 32" fill="none" xmlns="http://www.w3.org/2000/svg">
<g clip-path="url(#clip0_218_98)">
<path d="M27.2245 5.54081C25.1849 4.60496 22.9978 3.91548 20.711 3.52058C20.6693 3.51296 20.6278 3.532 20.6063 3.5701C20.325 4.07038 20.0134 4.72305 19.7953 5.23604C17.3357 4.86781 14.8887 4.86781 12.4796 5.23604C12.2613 4.71164 11.9384 4.07038 11.6559 3.5701C11.6344 3.53327 11.5928 3.51423 11.5512 3.52058C9.26568 3.91421 7.07855 4.6037 5.03771 5.54081C5.02004 5.54842 5.0049 5.56113 4.99485 5.57763C0.846321 11.7754 -0.290135 17.8209 0.267372 23.7914C0.269895 23.8206 0.286292 23.8486 0.308996 23.8664C3.04608 25.8764 5.69741 27.0967 8.2995 27.9055C8.34115 27.9182 8.38527 27.903 8.41177 27.8687C9.0273 27.0281 9.57599 26.1418 10.0464 25.2098C10.0742 25.1552 10.0477 25.0904 9.99095 25.0688C9.12064 24.7387 8.29193 24.3362 7.49477 23.8791C7.43172 23.8422 7.42667 23.7521 7.48468 23.7089C7.65243 23.5832 7.82022 23.4524 7.9804 23.3203C8.00939 23.2962 8.04977 23.2911 8.08384 23.3064C13.3208 25.6974 18.9905 25.6974 24.1657 23.3064C24.1998 23.2899 24.2402 23.2949 24.2704 23.3191C24.4307 23.4511 24.5984 23.5832 24.7674 23.7089C24.8254 23.7521 24.8216 23.8422 24.7586 23.8791C23.9614 24.345 23.1327 24.7387 22.2611 25.0676C22.2044 25.0892 22.1792 25.1552 22.2069 25.2098C22.6875 26.1405 23.2362 27.0268 23.8403 27.8674C23.8656 27.903 23.911 27.9182 23.9526 27.9055C26.5673 27.0967 29.2186 25.8764 31.9557 23.8664C31.9797 23.8486 31.9948 23.8219 31.9974 23.7927C32.6646 16.8901 30.8798 10.8942 27.2661 5.57889C27.2572 5.56113 27.2422 5.54842 27.2245 5.54081ZM10.8285 20.156C9.2518 20.156 7.95264 18.7085 7.95264 16.9308C7.95264 15.1531 9.2266 13.7055 10.8285 13.7055C12.443 13.7055 13.7295 15.1658 13.7043 16.9308C13.7043 18.7085 12.4303 20.156 10.8285 20.156ZM21.4615 20.156C19.8848 20.156 18.5857 18.7085 18.5857 16.9308C18.5857 15.1531 19.8596 13.7055 21.4615 13.7055C23.076 13.7055 24.3625 15.1658 24.3373 16.9308C24.3373 18.7085 23.076 20.156 21.4615 20.156Z" fill="white"/>
</g>
<defs>
<clipPath id="clip0_218_98">
<rect width="32" height="32" fill="white" transform="translate(0.135132)"/>
</clipPath>
</defs>
</svg>
