<svg width="121" height="113" viewBox="0 0 121 113" fill="none" xmlns="http://www.w3.org/2000/svg">
<path fill-rule="evenodd" clip-rule="evenodd" d="M60.5501 0C27.0674 0 0 25.8957 0 57.9323C0 83.5408 17.343 105.218 41.4024 112.89C44.4105 113.467 45.5123 111.644 45.5123 110.11C45.5123 108.767 45.4132 104.163 45.4132 99.3666C28.5696 102.82 25.0621 92.4607 25.0621 92.4607C22.3552 85.7466 18.3445 84.021 18.3445 84.021C12.8316 80.4721 18.7461 80.4721 18.7461 80.4721C24.8613 80.8559 28.0701 86.4187 28.0701 86.4187C33.4826 95.2421 42.2043 92.7491 45.7131 91.2142C46.2138 87.4734 47.8189 84.8838 49.523 83.4454C36.0891 82.1024 21.9549 77.1151 21.9549 54.8625C21.9549 48.5321 24.3593 43.353 28.1693 39.325C27.5682 37.8866 25.4624 31.9388 28.7716 23.9783C28.7716 23.9783 33.8842 22.4434 45.4119 29.9249C50.3474 28.6568 55.4372 28.0117 60.5501 28.0062C65.6626 28.0062 70.8743 28.6783 75.687 29.9249C87.2159 22.4434 92.3285 23.9783 92.3285 23.9783C95.6377 31.9388 93.5307 37.8866 92.9296 39.325C96.8399 43.353 99.1452 48.5321 99.1452 54.8625C99.1452 77.1151 85.011 82.0059 71.4767 83.4454C73.6828 85.2676 75.5866 88.7199 75.5866 94.1875C75.5866 101.956 75.4874 108.191 75.4874 110.109C75.4874 111.644 76.5905 113.467 79.5973 112.891C103.657 105.217 121 83.5408 121 57.9323C121.099 25.8957 93.9323 0 60.5501 0Z" fill="white"/>
</svg>
