<svg width="121" height="113" viewBox="0 0 121 113" fill="none" xmlns="http://www.w3.org/2000/svg">
<path d="M43.9175 101.163C36.1902 102.381 31.1853 100.699 28.0419 98.4239C26.3747 97.2174 25.2876 95.8839 24.613 94.8388C24.2758 94.3163 24.0404 93.8641 23.886 93.5324C23.8087 93.3665 23.7514 93.2303 23.7115 93.1299C23.6916 93.0797 23.676 93.0384 23.6644 93.0068C23.6626 93.002 23.661 92.9975 23.6594 92.9932C22.3903 89.8569 20.841 87.9342 19.6565 86.8119C19.0602 86.2469 18.5507 85.8795 18.2071 85.6604C18.0352 85.5508 17.9046 85.4782 17.8253 85.4366C17.7857 85.4159 17.7589 85.4028 17.7462 85.3968C17.7441 85.3958 17.7424 85.395 17.7411 85.3944C17.7384 85.3931 17.7373 85.3926 17.7379 85.3929L17.6373 85.3497L17.5326 85.2823C16.7984 84.8097 16.2101 84.3683 15.7584 83.949C15.3189 83.5409 14.9359 83.0876 14.7097 82.5762C14.4647 82.0222 14.3947 81.3643 14.6792 80.7271C14.9383 80.1466 15.3962 79.803 15.7432 79.608C16.4128 79.2318 17.2336 79.097 17.7317 79.038C18.0099 79.0051 18.2564 78.9888 18.4339 78.9807C18.5233 78.9765 18.5968 78.9744 18.65 78.9733C18.6767 78.9728 18.6984 78.9725 18.7145 78.9723L18.7346 78.9722L18.7414 78.9721H18.744L18.7451 78.9721C18.7456 78.9721 18.7461 78.9721 18.7461 80.4721V78.9721H18.7931L18.84 78.9751C22.3521 79.1955 24.9934 80.9027 26.7159 82.4845C27.5807 83.2787 28.2334 84.0583 28.6724 84.6425C28.8925 84.9354 29.0608 85.1818 29.1767 85.3596C29.2348 85.4486 29.2799 85.5207 29.312 85.5731C29.328 85.5993 29.3409 85.6207 29.3504 85.6368L29.3559 85.646C31.7984 89.6207 34.8894 90.9579 37.736 91.2065C40.2692 91.4277 42.6904 90.7878 44.364 90.1464C44.7724 87.9218 45.5544 86.0649 46.5314 84.5969C40.5978 83.7553 34.5507 82.0195 29.7606 78.1635C24.1197 73.6226 20.4549 66.3378 20.4549 54.8624C20.4549 48.4767 22.7616 43.1718 26.4429 38.9916C25.6012 36.5018 24.3408 30.7293 27.3865 23.4025L27.6594 22.746L28.3403 22.5416L28.7716 23.9783C28.3403 22.5416 28.3417 22.5412 28.3431 22.5408L28.3461 22.5399L28.3523 22.5381L28.3662 22.5341L28.3998 22.5248C28.4248 22.5182 28.4549 22.5105 28.4903 22.5023C28.5609 22.4857 28.6523 22.4667 28.7645 22.4478C28.9891 22.4099 29.2967 22.3727 29.6892 22.3566C30.4752 22.3244 31.5952 22.3774 33.067 22.6759C35.9161 23.2538 40.071 24.7486 45.6762 28.3118C50.5337 27.1183 55.5305 26.5116 60.5485 26.5062L60.5501 26.5062C65.564 26.5062 70.6684 27.1365 75.4239 28.3111C81.0291 24.7484 85.1839 23.2537 88.033 22.6759C89.5048 22.3774 90.6249 22.3244 91.4109 22.3566C91.8035 22.3727 92.111 22.4099 92.3356 22.4478C92.4479 22.4667 92.5392 22.4857 92.6098 22.5023C92.6452 22.5105 92.6753 22.5182 92.7003 22.5248L92.7339 22.5341L92.7478 22.5381L92.7541 22.5399L92.757 22.5408C92.7584 22.5412 92.7598 22.5416 92.3285 23.9783L43.9175 101.163ZM43.9175 101.163C43.9256 102.929 43.9443 104.614 43.9629 106.053C43.9706 106.654 43.9784 107.21 43.9853 107.71C44.0007 108.819 44.0123 109.656 44.0123 110.11C44.0123 110.55 43.8515 110.938 43.5924 111.167C43.3797 111.355 42.8822 111.628 41.7683 111.432C18.3227 103.916 1.5 82.8002 1.5 57.9323C1.5 26.786 27.8327 1.5 60.5501 1.5C93.1698 1.5 119.596 26.7875 119.5 57.9276V57.9323C119.5 82.8 102.677 103.914 79.2316 111.433C78.1188 111.629 77.6211 111.356 77.408 111.167C77.1485 110.938 76.9874 110.549 76.9874 110.109C76.9874 109.48 76.9982 108.381 77.0127 106.903C77.0201 106.148 77.0285 105.295 77.0369 104.356C77.0617 101.584 77.0866 98.078 77.0866 94.1875C77.0866 90.0298 76.0474 86.8454 74.5012 84.5776L43.9175 101.163Z" stroke="black" stroke-width="3"/>
</svg>
